# xmcd
#
# Track frame offsets: 
#        150
#        17687
#        38148
#        54972
#        73148
#        88820
#        110159
#        124203
#        139780
#        158049
#        171436
#        188207
#        204155
#        220855
#        242912
#
# Disc length: 3468 seconds
#
# Revision: 0
# Processed by: cddbd v1.5.1PL2 Copyright (c) Steve Scherf et al.
# Submitted via: ExactAudioCopy v0.95b3
#
DISCID=da0d8a0f
DTITLE=Joe Krown - New Orleans Piano Rolls
DYEAR=1900
DGENRE=Blues
TTITLE0=Tipitina
TTITLE1=Do You Know What It Means to Miss New Orleans
TTITLE2=On the Sunnyside of the Street
TTITLE3=Boogie Woogie Prayer
TTITLE4=Just a Closer Walk
TTITLE5=Pink Champagne
TTITLE6=Maple Leaf Rag
TTITLE7=Moore Women Shuffle
TTITLE8=Down By the Riverside
TTITLE9=Miss Celie's Mood
TTITLE10=Uptown Boogie
TTITLE11=Pineapple Rag
TTITLE12=Basin St. Blues
TTITLE13=St. Louis Blues
TTITLE14=Those Were the Days
EXTD=
EXTT0=
EXTT1=
EXTT2=
EXTT3=
EXTT4=
EXTT5=
EXTT6=
EXTT7=
EXTT8=
EXTT9=
EXTT10=
EXTT11=
EXTT12=
EXTT13=
EXTT14=
PLAYORDER=
